# xmcd CD database file generated by MAGIX-FreeDB-MAGIX_Alben_(*.ALB) v2.0beta1
# 
# Track frame offsets:
#      150
#      15616
#      32323
#      50757
#      68648
#      96175
#      113889
#      139330
#      157321
#      178684
# 
# Disc length: 2707 seconds
# 
# Revision: 2 
# Processed by: cddbd v1.5.2PL0 Copyright (c) Steve Scherf et al.
# Submitted via: MAGIX-FreeDB-MAGIX_Alben_(*.ALB) v2.0beta1
# 
DISCID=870a910a
DTITLE=Various Artist - No 1R&B Hits Cd1
DYEAR=2003
DGENRE=R&B
TTITLE0=Incognito - Always There (12' Mix)
TTITLE1=Joe - I'm In Luv
TTITLE2=Dru Hill - In My Bed
TTITLE3=Zhane - Groove Thang
TTITLE4=Sounds Of Blackness - The Pressure
TTITLE5=Montell Jorden - This Is How We Do It
TTITLE6=Incognito - Still A Friend Of Mine
TTITLE7=Guy - D-o-g Me Out
TTITLE8=Tony!Toni!Tone! - Feels Good
TTITLE9=Sounds Of Blackness - Optimistic
EXTD=
EXTT0=
EXTT1=
EXTT2=
EXTT3=
EXTT4=
EXTT5=
EXTT6=
EXTT7=
EXTT8=
EXTT9=
PLAYORDER=
